<svg xmlns="http://www.w3.org/2000/svg" data-name="Layer 2" viewBox="0 0 284.2 23.47"><path d="M0 22.77v-1.65h1.46c.98 0 1.99-.03 1.99-2.15V4.02c0-1.52-.57-1.77-1.96-1.77H0V.6h26.54l.44 9.11-1.26.13c-.82-1.61-3.67-7.72-8.98-7.72h-4.65c-1.11 0-1.23.13-1.23 1.46v7.34h1.08c4.87.09 5.6-3.19 5.69-5.88h1.17v13.79l-1.14.03c-.25-2.4-.25-6.42-5.35-6.52h-1.46v6.33c0 1.3 0 2.47 1.68 2.47h1.99v1.65H0ZM29.16.6h14.8v1.61h-1.8c-.73 0-1.96 0-1.96 1.68v12.65c0 3.26 1.14 5 4.71 5 3.13 0 5.88-1.58 5.88-6.14v-11c0-2.18-.85-2.18-1.96-2.18h-1.71V.6h8.83v1.61h-1.64c-1.14 0-1.83.22-1.83 2.18v10.5c0 5.69-2.85 8.45-9.2 8.45-5.95 0-10.44-1.46-10.44-7.62V3.8c0-1.3-1.08-1.58-2.06-1.58h-1.61V.6Zm33.62 1.68V.6H77.8v1.68h-1.58c-1.61 0-2.02.63-2.02 2.02v8.32c0 6.99-2.75 10.72-9.65 10.72-4.9 0-8.35-2.12-8.35-5.31 0-1.93 1.52-3.57 3.48-3.57s3.45 1.61 3.45 3.32-1.3 2.06-1.3 2.94 1.11 1.14 1.96 1.14c3.38 0 2.91-4.55 2.91-7.65V4.36c0-1.64-.35-2.09-2.18-2.09h-1.74ZM81.31.6H95.1v1.65h-1.3c-1.99 0-2.02.76-2.02 1.68v14.84c0 2.02.41 2.37 2.15 2.37h1.17v1.65H81.31v-1.65h1.3c1.77 0 1.96-.51 1.96-2.5V3.99c0-1.2-.47-1.74-1.61-1.74h-1.65V.6Zm54.91 8.19h-1.11c-1.71-2.5-4.59-7.24-9.49-7.24-3.7 0-4.9 3.1-4.9 6.33v6.96c0 3.99 1.33 6.99 4.93 6.99 6.33 0 9.11-6.77 9.39-8.79l1.49.19c-.73 3.32-3.35 10.12-11.23 10.12-6.58 0-12.27-4.62-12.27-11.51S118.19.03 124.93.03c1.71 0 3.51.35 5.06 1.17l.89.47c.41.22.85.44 1.33.44.95 0 1.77-1.27 2.09-2.12h1.17l.76 8.79ZM139.06.6h14.96v1.65h-1.36c-1.87 0-2.63.09-2.63 1.99v15.85c0 .92-.09 1.17 1.23 1.17h3.42c2.94 0 3.89-2.25 6.01-6.77l1.11-2.31h1.36l-.22 10.6h-23.88V21.1h1.58c1.68 0 1.9-.7 1.9-2.28V3.92c0-1.58-1.17-1.68-1.96-1.68h-1.52V.6Zm26.98 20.56h1.8c1.77 0 2.44-.6 2.94-1.87L178.66.03h4.62l6.8 18.47c.44 1.17.89 2.66 2.47 2.66h2.31v1.61h-15.18v-1.61h1.33c.82 0 1.58 0 1.58-.95 0-.32-.16-.6-.25-.92l-1.3-3.51h-6.77l-1.39 3.45c-.13.35-.25.63-.25.95 0 .85.57.98 1.36.98h2.15v1.61h-10.09v-1.61Zm11.92-15.18-3.2 8.41h5.92l-2.72-8.41Zm20.43 17.49v-7.78h1.46c1.52 3.7 4.17 6.17 8.35 6.17 2.28 0 4.52-1.23 4.52-2.88 0-4.46-14.33-2.18-14.33-11.89 0-4.18 2.91-7.05 7.15-7.05 3.64 0 5.06 1.87 6.01 1.87.73 0 .92-.57 1.65-1.87h1.08l.47 7.02h-1.23c-.41-1.3-3-5.57-7.56-5.57-1.74 0-3.13.85-3.13 2.21 0 4.33 13.51 2.78 13.51 11.36 0 4.59-3.45 8.29-8.19 8.29-4.14 0-5.54-1.93-6.64-1.93-.85 0-1.08.73-1.71 2.06h-1.39Zm22.93 0v-7.78h1.46c1.52 3.7 4.17 6.17 8.35 6.17 2.28 0 4.52-1.23 4.52-2.88 0-4.46-14.33-2.18-14.33-11.89 0-4.18 2.91-7.05 7.15-7.05 3.64 0 5.06 1.87 6.01 1.87.73 0 .92-.57 1.65-1.87h1.08l.47 7.02h-1.23c-.41-1.3-3-5.57-7.56-5.57-1.74 0-3.13.85-3.13 2.21 0 4.33 13.51 2.78 13.51 11.36 0 4.59-3.45 8.29-8.19 8.29-4.14 0-5.54-1.93-6.64-1.93-.85 0-1.08.73-1.71 2.06h-1.39ZM242.92.6h13.79v1.65h-1.3c-1.99 0-2.02.76-2.02 1.68v14.84c0 2.02.41 2.37 2.15 2.37h1.17v1.65h-13.79v-1.65h1.3c1.77 0 1.96-.51 1.96-2.5V3.99c0-1.2-.47-1.74-1.61-1.74h-1.65V.6Zm40.96 8.19h-1.11c-1.71-2.5-4.59-7.24-9.49-7.24-3.7 0-4.9 3.1-4.9 6.33v6.96c0 3.99 1.33 6.99 4.93 6.99 6.33 0 9.11-6.77 9.39-8.79l1.49.19c-.73 3.32-3.35 10.12-11.23 10.12-6.58 0-12.27-4.62-12.27-11.51S265.85.03 272.59.03c1.71 0 3.51.35 5.06 1.17l.89.47c.41.22.85.44 1.33.44.95 0 1.77-1.27 2.09-2.12h1.17l.76 8.79Z" data-name="レイヤー 1" style="fill:#fff"/></svg>